<svg xmlns="http://www.w3.org/2000/svg" viewBox="0 0 99.2969 102.5"><defs><style>.cls-1{fill:#414141;}</style></defs><title>recruit01</title><g id="レイヤー_2" data-name="レイヤー 2"><g id="Layer_2" data-name="Layer 2"><path class="cls-1" d="M22.5,60a8.76463,8.76463,0,0,0,3.75,7.1436v7.893a5.00013,5.00013,0,0,0,10,0v-7.893A8.73729,8.73729,0,1,0,22.5,60Zm15,0a6.18925,6.18925,0,0,1-3.12988,5.3809A1.24327,1.24327,0,0,0,33.75,66.46v8.5766a2.50027,2.50027,0,0,1-5,0V66.46a1.2433,1.2433,0,0,0-.6201-1.0791A6.18928,6.18928,0,0,1,25,60a6.25,6.25,0,1,1,12.5,0Z"/><path class="cls-1" d="M31.25,86.25a5,5,0,1,0,5,5A5.005,5.005,0,0,0,31.25,86.25Zm0,7.5a2.5,2.5,0,1,1,2.5-2.5A2.5033,2.5033,0,0,1,31.25,93.75Z"/><path class="cls-1" d="M95.7909,26.1327a10.29225,10.29225,0,0,0-1.3036-.5907c-9.7119-3.645-26.7676-5.1294-35.3174-5.4321-3.3325-.1163-7.3742-.1664-11.6699.0467V16.1011a16.25068,16.25068,0,0,0-32.5,0v4.0478H6.25A1.25084,1.25084,0,0,0,5,21.3989v15a1.25084,1.25084,0,0,0,1.25,1.25H15v17.5H1.25A1.25084,1.25084,0,0,0,0,56.3989v10a1.25084,1.25084,0,0,0,1.25,1.25H15v2.5H1.25A1.25084,1.25084,0,0,0,0,71.3989v10a1.25084,1.25084,0,0,0,1.25,1.25H15v3.75a16.25068,16.25068,0,0,0,32.5,0V36.7233c13.3215-2.0996,28.0899-2.3193,38.5108-.2365l4.8144.9448c.2686.0684.8301.1783,2.2217.4297a6.25584,6.25584,0,0,0,6.25-6.2499A6.08169,6.08169,0,0,0,95.7909,26.1327ZM7.5,35.1489v-12.5H15v12.5Zm-5,30v-7.5H15v7.5Zm0,15v-7.5H15v7.5Zm42.5,6.25a13.75081,13.75081,0,0,1-27.5,0V16.1011a13.75081,13.75081,0,0,1,27.5,0v4.2038a72.7151,72.7151,0,0,0-10.98588,1.6103c-3.09912.7192-6.67312,1.5176-9.102,3.7122-2.57812,2.334-3.164,6.1353-1.499,9.6851a8.2191,8.2191,0,0,0,7.31928,5.0659c2.2569,0,4.7084-1.1479,6.8838-1.6855C38.2628,38.533,45,37.2483,45,37.1408ZM93.2812,35.3833c-2.2603-.2717-4.546-.8984-6.7824-1.3467-10.1891-2.0426-20.9122-1.8405-31.2091-.8413-4.1335.4012-8.2573.9339-12.339,1.7056-2.0757.3924-4.1401.8462-6.1848,1.3773a51.74707,51.74707,0,0,1-5.3499,1.5514c-2.8076.4028-4.8486-1.6748-5.7422-3.5791-.9033-1.9238-1.2011-4.8511.9181-6.7677,2.0311-1.8356,5.1868-2.4815,7.7771-3.0945a66.82591,66.82591,0,0,1,8.8502-1.4311,119.16072,119.16072,0,0,1,15.86292-.3473c10.88858.3833,26.33778,2.1997,34.52628,5.2734.6592.2441,1.0108.376,1.2305.4468a3.65172,3.65172,0,0,1,1.958,3.2812A3.7508,3.7508,0,0,1,93.2812,35.3833Z"/></g></g></svg>