<svg xmlns="http://www.w3.org/2000/svg" viewBox="0 0 787.31683 787.31683"><defs><style>.cls-1{fill:#231815;}</style></defs><title>rtr-x8</title><path class="cls-1" d="M52.36668,787.31683q-17.9264-6.88615-26.87238-25.82307A134.81964,134.81964,0,0,0,2.75614,727.63684L0,681.72915q12.40264-99.84922,17.91492-202.56767Q23.40653,376.46025,26.18334,268.56L12.40264,136.57537l-9.64649-3.44308V113.62153L5.51228,73.4523,0,59.68H23.4272l11.02457,3.44308Q81.2855,44.77721,133.67285,24.10154A348.39724,348.39724,0,0,1,239.78429,0l5.51228,3.44308L288.01677,0a295.36126,295.36126,0,0,1,52.36668,18.36307,280.97039,280.97039,0,0,1,48.23247,28.6923A211.2943,211.2943,0,0,1,411.35409,88.3723q8.946,21.81572,6.20132,48.20307l-5.51228,18.36307,5.51228,40.16923a203.09859,203.09859,0,0,1-24.80527,55.66307,432.76657,432.76657,0,0,1-38.586,51.0723l-11.02457,3.44308L334.87117,316.763,288.01677,358.08v13.77231a848.14979,848.14979,0,0,0,68.90353,141.74,886.64666,886.64666,0,0,0,96.46495,130.26306l45.47633,26.39692,35.82984,29.84L565.009,717.30761l8.26842,29.84-12.40264,10.32923-28.93948,10.32923-92.33073-47.05538A525.31915,525.31915,0,0,1,306.62072,579.58455q-53.0672-82.63384-102.66626-159.52921l-23.4272-3.44308v-14.92H173.6369l-13.78071,3.44308-39.964-8.03385q-15.17945,92.96307-24.11624,190.5169-8.97813,97.5634-24.11624,192.81229ZM173.6369,298.4a229.78513,229.78513,0,0,0,70.97064-25.82307q33.75125-18.93692,62.70221-52.22,13.76-17.21538,22.73817-41.31692a98.82011,98.82011,0,0,0,4.82325-50.49846L310.0659,73.4523q-15.17945-10.32923-29.62852-12.05077A276.15074,276.15074,0,0,0,248.05272,59.68a390.153,390.153,0,0,0-64.08029,12.05077q-31.00659,8.60769-57.18993,35.00461-22.06061,36.74337-20.67106,84.35537,1.3574,47.63879,1.37807,95.8323l4.13421,18.36307h45.47633ZM682.11121,763.98042Q656.989,758.8885,630.357,755.81906a163.0657,163.0657,0,0,1-49.91678-13.77231l-8.57466-7.65128q-7.34971-7.13673-7.34971-16.32273V699.19958q7.34971-23.96955,13.47447-49.73333a209.29606,209.29606,0,0,1,17.7618-48.20307h2.4499l1.83743-5.61094,15.3119-23.974a243.60728,243.60728,0,0,1-30.31755-9.18154,76.49885,76.49885,0,0,1-26.6427-16.83282,46.42082,46.42082,0,0,1-6.431-20.40342q-.91871-11.213-2.75614-21.93367a134.03436,134.03436,0,0,1,26.94894-43.86735q17.75644-19.37878,35.5236-39.27658a68.12807,68.12807,0,0,1,32.155-17.853q18.67515-4.59077,35.82984-8.67145l6.73723,16.83282a187.07641,187.07641,0,0,0,19.293,6.88615,136.56472,136.56472,0,0,0,21.74289,4.33573l2.4499,5.61094,13.47447,7.65128a93.73346,93.73346,0,0,0,13.78071,19.89333q8.26842,9.18154,8.26842,22.44376a204.59279,204.59279,0,0,1-12.55575,29.585,83.88483,83.88483,0,0,1-21.13042,26.01436l-33.68617,22.44376v5.10085q19.59387,7.65128,39.19845,16.83282a110.12467,110.12467,0,0,1,34.91112,26.01436,79.2834,79.2834,0,0,1,13.47447,31.37025,111.11531,111.11531,0,0,1,.61248,34.94085,98.32779,98.32779,0,0,1-7.96219,39.02153q-7.96755,18.627-25.11151,33.41059a335.96053,335.96053,0,0,1-32.76746,16.57778Q703.53714,766.02523,682.11121,763.98042ZM647.20008,545.66387q20.81346-14.788,43.792-28.56478a198.0946,198.0946,0,0,0,40.72964-32.13538v-9.69162l-23.88656-23.974-9.79961-3.5706-6.12476-7.65128H656.9997a55.34177,55.34177,0,0,0-24.499,9.43658,138.89429,138.89429,0,0,1-22.66161,13.00718v3.5706h-4.28733a119.8636,119.8636,0,0,1-18.37428,27.03453,41.35235,41.35235,0,0,0-11.02457,28.56478,85.53822,85.53822,0,0,0,31.54251,18.36307,182.09268,182.09268,0,0,0,37.66726,7.65128ZM725.597,716.03239l15.92437-18.36307a53.62835,53.62835,0,0,0,5.51228-23.974V647.17086a161.98973,161.98973,0,0,0-8.8809-20.9135A113.919,113.919,0,0,0,725.597,606.87412q-15.93509-9.18154-31.84874-16.57778a175.02353,175.02353,0,0,0-33.0737-11.47692,178.875,178.875,0,0,0-31.54251,30.095A280.16263,280.16263,0,0,0,605.55173,642.07a184.848,184.848,0,0,0-11.3308,35.45094q-3.99181,18.627-8.26842,36.98119l4.28733,9.18154q3.67486,3.57506,10.41209,4.59077a85.14564,85.14564,0,0,0,12.862,1.02017l20.2117-4.08068,56.34778,4.08068ZM601.87687,597.69258l-1.83743-2.04034-1.83743,2.04034,1.83743,1.53026Z"/></svg>